<svg width="43" height="43" viewBox="0 0 43 43" fill="none" xmlns="http://www.w3.org/2000/svg">
<g filter="url(#filter0_i_123_10743)">
<g clip-path="url(#clip0_123_10743)">
<path d="M21.9698 27.1838C22.3456 27.2235 22.7215 27.2575 23.0973 27.2915C24.0062 28.0168 24.9082 28.7422 25.8171 29.4675L25.7829 29.4562C26.8694 32.0573 26.7669 34.6754 25.9538 37.3048C25.8239 37.4011 25.7761 37.5144 25.8102 37.6561C23.6372 40.5632 20.8423 42.6883 16.4688 42.9603C12.5259 43.2096 9.2116 41.9799 6.12968 40.1155L6.13651 40.1269C5.90417 39.9342 5.67183 39.7415 5.43949 39.5488L5.45316 39.5602C5.22765 39.3562 4.99531 39.1578 4.7698 38.9538L4.80397 38.9652C1.23003 34.1597 1.33254 29.0142 2.76758 23.744C2.76758 23.744 2.74708 23.7553 2.74024 23.7553C3.69011 22.2706 4.63997 20.7859 5.58983 19.2955L5.56933 19.2842C7.9679 17.1365 10.7628 15.3174 13.7081 13.385C8.77425 11.7756 4.42813 12.79 0.0683329 13.2774C0.129835 13.147 0.109334 13.0337 -0.00683594 12.926C0.0409988 11.2316 0.109334 9.53724 0.143502 7.84285C0.273339 1.41099 3.45776 -0.816081 11.2002 0.260619C16.4961 0.997309 21.7716 1.59233 27.0881 0.49296C28.0243 0.300287 28.6667 0.396624 28.6257 1.35999C28.4685 5.15677 29.5687 9.16889 25.8649 12.3537C25.8649 12.3537 25.8717 12.3423 25.8786 12.3423C21.9903 14.2521 17.2547 14.5921 13.5646 16.8758V16.8588C8.51458 19.2445 7.25721 24.509 10.8243 28.3058L10.8106 28.2945C14.6374 31.7003 19.5917 31.2072 21.9561 27.1838H21.9698Z" fill="#DA613A"/>
</g>
<g clip-path="url(#clip1_123_10743)">
<path d="M43 35.0076C43.0758 37.0948 41.65 38.2769 40.4327 39.548C37.518 42.5947 34.5876 42.6656 31.6413 39.7607C31.3098 39.4342 30.9829 39.093 30.6513 38.7616C28.8988 37.0256 27.8993 35.0225 29.3961 32.6633C30.784 30.4722 32.8445 30.2298 34.9523 31.4367C36.1033 32.0945 36.8423 31.313 37.7564 31.0311C40.6364 30.1408 43.0663 31.9906 43 35.0126V35.0076Z" fill="#D9623A"/>
</g>
</g>
<defs>
<filter id="filter0_i_123_10743" x="0" y="0" width="43" height="47" filterUnits="userSpaceOnUse" color-interpolation-filters="sRGB">
<feFlood flood-opacity="0" result="BackgroundImageFix"/>
<feBlend mode="normal" in="SourceGraphic" in2="BackgroundImageFix" result="shape"/>
<feColorMatrix in="SourceAlpha" type="matrix" values="0 0 0 0 0 0 0 0 0 0 0 0 0 0 0 0 0 0 127 0" result="hardAlpha"/>
<feOffset dy="4"/>
<feGaussianBlur stdDeviation="2"/>
<feComposite in2="hardAlpha" operator="arithmetic" k2="-1" k3="1"/>
<feColorMatrix type="matrix" values="0 0 0 0 0 0 0 0 0 0 0 0 0 0 0 0 0 0 0.25 0"/>
<feBlend mode="normal" in2="shape" result="effect1_innerShadow_123_10743"/>
</filter>
<clipPath id="clip0_123_10743">
<rect width="28.6667" height="43" fill="white"/>
</clipPath>
<clipPath id="clip1_123_10743">
<rect width="14.3333" height="12.2857" fill="white" transform="translate(28.6667 30.7142)"/>
</clipPath>
</defs>
</svg>
