<?xml version="1.0" standalone="no"?>
<!DOCTYPE svg PUBLIC "-//W3C//DTD SVG 20010904//EN"
 "http://www.w3.org/TR/2001/REC-SVG-20010904/DTD/svg10.dtd">
<svg version="1.0" xmlns="http://www.w3.org/2000/svg"
 width="700.000000pt" height="700.000000pt" viewBox="0 0 700.000000 700.000000"
 preserveAspectRatio="xMidYMid meet">
<metadata>
Created by potrace 1.14, written by Peter Selinger 2001-2017
</metadata>
<g transform="translate(0.000000,700.000000) scale(0.100000,-0.100000)"
fill="#000000" stroke="none">
<path d="M1079 6995 c-2 -1 -31 -6 -64 -10 -104 -12 -109 -12 -145 -19 -19 -4
-60 -14 -90 -22 -30 -9 -59 -17 -65 -19 -41 -9 -192 -82 -248 -119 -84 -56
-182 -155 -238 -242 -54 -82 -124 -245 -144 -334 -22 -96 -35 -164 -39 -205
-4 -27 -8 -60 -10 -72 -5 -25 -15 -245 -21 -493 -2 -91 -7 -256 -10 -367 -4
-127 -2 -203 4 -207 5 -4 8 -16 6 -27 -5 -23 -7 -23 220 7 108 14 142 19 228
29 23 3 58 7 77 10 113 15 176 22 265 31 39 3 84 8 100 9 167 17 425 22 600
11 108 -6 136 -9 225 -21 101 -14 117 -17 176 -30 34 -8 73 -16 85 -19 79 -15
229 -58 229 -66 0 -6 -267 -186 -445 -300 -12 -8 -42 -29 -66 -46 -24 -17 -82
-57 -129 -89 -93 -64 -447 -328 -495 -369 -16 -15 -52 -45 -80 -68 -83 -71
-104 -97 -203 -253 -52 -82 -152 -240 -223 -351 -122 -191 -129 -206 -154
-305 -15 -57 -29 -113 -31 -124 -2 -11 -10 -51 -18 -90 -18 -82 -36 -185 -51
-290 -29 -207 -34 -543 -10 -710 2 -16 7 -52 11 -80 3 -27 8 -59 10 -70 2 -11
6 -31 9 -45 60 -315 196 -631 388 -905 55 -78 60 -83 172 -179 136 -116 429
-273 695 -373 172 -65 429 -130 580 -148 30 -4 69 -9 85 -12 49 -9 395 -10
470 -2 157 17 193 22 290 44 169 37 383 122 530 210 136 81 334 241 436 351
82 89 209 248 209 262 0 8 9 30 21 48 11 19 18 34 14 34 -3 0 -2 8 4 17 10 20
57 225 66 288 15 113 19 172 19 295 0 123 -3 161 -20 278 -10 73 -36 168 -70
268 -30 85 -41 106 -72 130 -20 16 -47 39 -60 52 -13 12 -25 22 -28 22 -2 0
-51 37 -107 83 -56 45 -109 87 -117 94 -71 57 -96 73 -114 74 -11 1 -39 3 -61
5 -106 11 -95 16 -152 -68 -51 -74 -194 -227 -242 -258 -13 -8 -29 -20 -36
-27 -7 -7 -55 -35 -107 -63 -114 -61 -235 -99 -363 -116 -50 -6 -207 -6 -260
1 -113 14 -311 71 -344 98 -8 7 -17 11 -20 10 -10 -2 -114 52 -177 92 -202
129 -340 281 -433 478 -34 72 -83 207 -75 207 3 0 1 8 -4 18 -31 57 -36 303
-10 428 29 137 42 176 101 289 125 240 328 430 627 587 58 30 131 70 164 87
134 74 376 170 625 247 80 25 153 47 161 49 17 4 423 122 550 159 47 14 94 30
105 35 11 5 55 21 98 36 43 14 133 49 200 77 110 46 130 59 195 122 76 73 155
172 208 261 63 105 128 286 149 415 3 19 8 42 10 50 11 43 18 212 17 435 0
138 -1 335 -2 438 0 204 -6 229 -56 261 -35 23 -121 24 -224 2 -30 -7 -123
-24 -165 -30 -148 -22 -243 -34 -330 -42 -278 -24 -737 -24 -1055 0 -175 13
-218 17 -240 21 -14 3 -54 7 -90 10 -36 3 -78 8 -95 10 -16 2 -57 6 -90 9 -33
4 -71 9 -85 11 -14 3 -44 7 -67 10 -65 8 -118 15 -165 21 -43 6 -69 9 -143 19
-22 2 -53 7 -70 9 -16 3 -55 8 -85 11 -30 3 -71 8 -90 11 -40 6 -526 14 -531
9z"/>
<path d="M5190 1993 c-27 -4 -40 -9 -115 -43 -27 -12 -50 -21 -51 -19 0 2 -25
-16 -55 -41 -150 -124 -261 -302 -295 -474 -9 -48 -4 -195 10 -243 8 -29 13
-53 11 -53 -13 0 93 -189 142 -255 56 -76 332 -362 418 -434 99 -82 254 -174
347 -205 123 -41 264 -54 363 -35 28 6 60 12 73 15 91 18 263 110 376 201 90
73 329 314 409 415 69 85 119 174 149 263 27 80 33 286 12 400 -47 248 -245
448 -484 491 -63 11 -178 12 -224 2 -21 -5 -50 -10 -65 -12 -37 -5 -110 -32
-197 -72 -41 -19 -82 -35 -92 -37 -9 -1 -21 -5 -27 -9 -5 -3 -37 -4 -70 -3
-49 3 -82 14 -175 59 -170 82 -310 109 -460 89z"/>
</g>
</svg>
